<?xml version="1.0" encoding="UTF-8" standalone="no"?>
<svg
   width="512"
   height="512"
   viewBox="0 0 512 512"
   version="1.1"
   id="svg27"
   sodipodi:docname="pause.svg"
   inkscape:version="1.1 (c68e22c387, 2021-05-23)"
   xmlns:inkscape="http://www.inkscape.org/namespaces/inkscape"
   xmlns:sodipodi="http://sodipodi.sourceforge.net/DTD/sodipodi-0.dtd"
   xmlns="http://www.w3.org/2000/svg"
   xmlns:svg="http://www.w3.org/2000/svg">
  <defs
     id="defs31" />
  <sodipodi:namedview
     id="namedview29"
     pagecolor="#ffffff"
     bordercolor="#666666"
     borderopacity="1.0"
     inkscape:pageshadow="2"
     inkscape:pageopacity="0.0"
     inkscape:pagecheckerboard="0"
     showgrid="false"
     inkscape:zoom="0.97070312"
     inkscape:cx="256"
     inkscape:cy="256"
     inkscape:window-width="1366"
     inkscape:window-height="705"
     inkscape:window-x="-8"
     inkscape:window-y="-8"
     inkscape:window-maximized="1"
     inkscape:current-layer="svg27" />
  <title
     id="title21">ionicons-v5-c</title>
  <path
     d="M208,432H160a16,16,0,0,1-16-16V96a16,16,0,0,1,16-16h48a16,16,0,0,1,16,16V416A16,16,0,0,1,208,432Z"
     id="path23"
     style="fill:#000080" />
  <path
     d="M352,432H304a16,16,0,0,1-16-16V96a16,16,0,0,1,16-16h48a16,16,0,0,1,16,16V416A16,16,0,0,1,352,432Z"
     id="path25"
     style="fill:#000080" />
</svg>
